<svg viewBox="0 0 900 260" xmlns="http://www.w3.org/2000/svg" width="900" height="260" role="img" aria-label="AI developer workspace banner"><title>AI Developer Workspace – rupsha</title><defs><radialGradient id="bgR" cx="65%" cy="55%" r="75%"><stop offset="0%" stop-color="#131929"/><stop offset="60%" stop-color="#0e1420"/><stop offset="100%" stop-color="#0d1117"/></radialGradient><radialGradient id="gA" cx="75%" cy="70%" r="40%"><stop offset="0%" stop-color="#7c3aed" stop-opacity=".22"/><stop offset="55%" stop-color="#3b82f6" stop-opacity=".1"/><stop offset="100%" stop-color="#0d1117" stop-opacity="0"/></radialGradient><radialGradient id="tA" cx="22%" cy="50%" r="35%"><stop offset="0%" stop-color="#1e40af" stop-opacity=".12"/><stop offset="100%" stop-color="#0d1117" stop-opacity="0"/></radialGradient><linearGradient id="dG" x1="0" y1="0" x2="0" y2="1"><stop offset="0%" stop-color="#a57c50"/><stop offset="50%" stop-color="#8a6338"/><stop offset="100%" stop-color="#6e4e2d"/></linearGradient><linearGradient id="dE" x1="0" y1="0" x2="0" y2="1"><stop offset="0%" stop-color="#c49060"/><stop offset="100%" stop-color="#8a6338"/></linearGradient><linearGradient id="hD" x1="0" y1="0" x2="0" y2="1"><stop offset="0%" stop-color="#6099e8"/><stop offset="100%" stop-color="#3468c0"/></linearGradient><linearGradient id="hG" x1="0" y1="0" x2="0" y2="1"><stop offset="0%" stop-color="#4a3020"/><stop offset="100%" stop-color="#2c1d10"/></linearGradient><radialGradient id="lG" cx="50%" cy="50%" r="50%"><stop offset="0%" stop-color="#ffd580" stop-opacity=".9"/><stop offset="60%" stop-color="#ffb840" stop-opacity=".35"/><stop offset="100%" stop-color="#ffd580" stop-opacity="0"/></radialGradient><radialGradient id="pG"><stop offset="0%" stop-color="#79c0ff" stop-opacity=".85"/><stop offset="100%" stop-color="#79c0ff" stop-opacity="0"/></radialGradient><radialGradient id="pP"><stop offset="0%" stop-color="#c084fc" stop-opacity=".7"/><stop offset="100%" stop-color="#c084fc" stop-opacity="0"/></radialGradient><radialGradient id="lS" cx="50%" cy="50%" r="50%"><stop offset="0%" stop-color="#58a6ff" stop-opacity=".35"/><stop offset="100%" stop-color="#58a6ff" stop-opacity="0"/></radialGradient><linearGradient id="sG" x1="0" y1="0" x2="0" y2="1"><stop offset="0%" stop-color="#f0bc90"/><stop offset="100%" stop-color="#e8a87a"/></linearGradient><linearGradient id="cG" x1="0" y1="0" x2="0" y2="1"><stop offset="0%" stop-color="#252d3d"/><stop offset="100%" stop-color="#1a2030"/></linearGradient><linearGradient id="tBG" x1="0" y1="0" x2="0" y2="1"><stop offset="0%" stop-color="#161d2b"/><stop offset="100%" stop-color="#0d1219"/></linearGradient><linearGradient id="tTG" x1="0" y1="0" x2="0" y2="1"><stop offset="0%" stop-color="#1e2738"/><stop offset="100%" stop-color="#18202f"/></linearGradient><clipPath id="wG"><rect x="200" y="7" width="84" height="72" rx="3"/></clipPath><clipPath id="vC"><rect x="-48" y="-45" width="96" height="88" rx="3"/></clipPath></defs><style>.cursor{animation:cB 1.1s infinite}@keyframes cB{0%,45%{opacity:1}50%,100%{opacity:0}}.eyes{animation:eB 9s ease-in-out infinite;transform-box:fill-box;transform-origin:center}@keyframes eB{0%,82%{transform:scaleY(1)}84%{transform:scaleY(.06)}86%,90%{transform:scaleY(1)}92%{transform:scaleY(.06)}94%,100%{transform:scaleY(1)}}.stA{animation:sA 3.8s cubic-bezier(.45,.05,.55,.95) infinite;transform-origin:bottom center}.stB{animation:sB 4.2s cubic-bezier(.45,.05,.55,.95) infinite;animation-delay:-1.4s;transform-origin:bottom center}@keyframes sA{0%{transform:translateY(0) translateX(0) scaleX(1);opacity:0}8%{opacity:.65}50%{transform:translateY(-11px) translateX(2px) scaleX(1.08);opacity:.45}100%{transform:translateY(-26px) translateX(-2px) scaleX(1.3);opacity:0}}@keyframes sB{0%{transform:translateY(0) translateX(0) scaleX(1);opacity:0}10%{opacity:.55}45%{transform:translateY(-9px) translateX(-2px) scaleX(1.05);opacity:.38}100%{transform:translateY(-24px) translateX(3px) scaleX(1.25);opacity:0}}.lG{animation:lB 5s ease-in-out infinite}@keyframes lB{0%{opacity:.42}40%{opacity:.88}60%{opacity:.92}100%{opacity:.42}}.sG{animation:sBr 6.5s ease-in-out infinite;animation-delay:-2.1s}@keyframes sBr{0%,100%{opacity:.35}50%{opacity:.82}}.twA{animation:tA 3.2s ease-in-out infinite;transform-box:fill-box;transform-origin:center}.twB{animation:tB 4.6s ease-in-out infinite;animation-delay:-1.8s;transform-box:fill-box;transform-origin:center}.twC{animation:tC 2.4s ease-in-out infinite;animation-delay:-.9s;transform-box:fill-box;transform-origin:center}.twD{animation:tD 5.1s ease-in-out infinite;animation-delay:-3.2s;transform-box:fill-box;transform-origin:center}@keyframes tA{0%,100%{opacity:.15;transform:scale(.9)}50%{opacity:.95;transform:scale(1.15)}}@keyframes tB{0%,100%{opacity:.1}45%,55%{opacity:1}50%{opacity:.85}}@keyframes tC{0%,100%{opacity:.25;transform:scale(1)}50%{opacity:.8;transform:scale(1.2)}}@keyframes tD{0%,100%{opacity:.08}70%,80%{opacity:.9}}.fA{animation:oA 8s ease-in-out infinite;transform-box:fill-box;transform-origin:center}.fB{animation:oB 11s ease-in-out infinite;animation-delay:-3.5s;transform-box:fill-box;transform-origin:center}.fC{animation:oC 7s ease-in-out infinite;animation-delay:-1.8s;transform-box:fill-box;transform-origin:center}.fD{animation:oD 9.5s ease-in-out infinite;animation-delay:-5s;transform-box:fill-box;transform-origin:center}@keyframes oA{0%,100%{transform:translate(0,0);opacity:.28}33%{transform:translate(3px,-10px);opacity:.7}66%{transform:translate(-2px,-6px);opacity:.45}}@keyframes oB{0%,100%{transform:translate(0,0);opacity:.22}40%{transform:translate(-4px,-12px);opacity:.65}70%{transform:translate(2px,-8px);opacity:.38}}@keyframes oC{0%,100%{transform:translate(0,0);opacity:.32}50%{transform:translate(5px,-9px);opacity:.75}}@keyframes oD{0%,100%{transform:translate(0,0);opacity:.18}25%{transform:translate(-3px,-7px);opacity:.55}75%{transform:translate(4px,-11px);opacity:.42}}.pS{animation:pR 5.5s cubic-bezier(.37,0,.63,1) infinite;transform-box:fill-box;transform-origin:50% 100%}@keyframes pR{0%{transform:rotate(-2deg)}30%{transform:rotate(-3deg)}50%{transform:rotate(2.5deg)}70%{transform:rotate(3deg)}100%{transform:rotate(-2deg)}}text,tspan{font-family:'SF Mono','Cascadia Code',Consolas,monospace}.jbm{font-family:'JetBrains Mono',monospace}</style><rect width="900" height="260" fill="#0d1117"/><rect width="900" height="260" fill="url(#bgR)"/><rect width="900" height="260" fill="url(#gA)"/><rect width="900" height="260" fill="url(#tA)"/><circle class="twA" cx="68" cy="28" r="1.3" fill="#a5d6ff"/><circle class="twB" cx="138" cy="52" r="1" fill="#a5d6ff"/><circle class="twC" cx="432" cy="20" r="1.2" fill="#c4b5fd"/><circle class="twD" cx="505" cy="175" r="1.1" fill="#a5d6ff"/><circle class="twA" cx="612" cy="16" r="1" fill="#a5d6ff"/><circle class="twB" cx="758" cy="36" r="1.4" fill="#c4b5fd"/><circle class="twC" cx="852" cy="58" r=".9" fill="#a5d6ff"/><circle class="twD" cx="305" cy="218" r="1" fill="#a5d6ff"/><circle class="twA" cx="42" cy="182" r="1.1" fill="#a5d6ff"/><circle class="twB" cx="878" cy="198" r="1.2" fill="#c4b5fd"/><circle class="twC" cx="192" cy="14" r=".9" fill="#a5d6ff"/><circle class="twD" cx="712" cy="228" r="1" fill="#a5d6ff"/><circle class="twA" cx="820" cy="120" r=".8" fill="#c4b5fd"/><circle class="twB" cx="360" cy="240" r="1" fill="#a5d6ff"/><g stroke="#304060" stroke-width=".7" opacity=".45"><line x1="68" y1="28" x2="138" y2="52"/><line x1="138" y1="52" x2="118" y2="92"/><line x1="612" y1="16" x2="758" y2="36"/><line x1="758" y1="36" x2="852" y2="58"/><line x1="432" y1="20" x2="505" y2="175"/></g><circle class="fA" cx="382" cy="78" r="2.3" fill="url(#pG)"/><circle class="fB" cx="648" cy="48" r="1.9" fill="url(#pP)"/><circle class="fC" cx="782" cy="148" r="2.1" fill="url(#pG)"/><circle class="fD" cx="542" cy="218" r="1.7" fill="url(#pP)"/><circle class="fA" cx="22" cy="118" r="1.9" fill="url(#pG)"/><circle class="fB" cx="455" cy="130" r="1.5" fill="url(#pP)"/><circle class="fC" cx="108" cy="240" r="1.3" fill="url(#pG)"/><g transform="translate(34,42)"><rect width="350" height="151" rx="13" fill="url(#tBG)" stroke="#253040" stroke-width="1.4"/><rect width="350" height="33" rx="13" fill="url(#tTG)"/><rect y="21" width="350" height="12" fill="url(#tTG)"/><line x1="0" y1="33" x2="350" y2="33" stroke="#1e2c40" stroke-width="1"/><circle cx="20" cy="16.5" r="6" fill="#ff5f56"/><circle cx="40" cy="16.5" r="6" fill="#ffbd2e"/><circle cx="60" cy="16.5" r="6" fill="#27c93f"/><text x="175" y="21" font-size="9.5" fill="#6b7d99" text-anchor="middle" letter-spacing="1" font-family="'JetBrains Mono',monospace">workspace</text><g transform="translate(36,92)" font-size="9" font-family="'JetBrains Mono',monospace"><text y="0" fill="#58a6ff">&gt;</text><g transform="translate(15,0)"><text fill="#9aa7bd" letter-spacing=".2" opacity="1">Loading workspace...<animate attributeName="opacity" values="1;1;0;0;0" keyTimes="0;0.15;0.169;0.2;1" dur="16s" repeatCount="indefinite"/></text><text fill="#9aa7bd" letter-spacing=".2" opacity="0">Opening VS Code...<animate attributeName="opacity" values="0;0;1;1;0;0" keyTimes="0;0.2;0.219;0.35;0.369;1" dur="16s" repeatCount="indefinite"/></text><text fill="#9aa7bd" letter-spacing=".2" opacity="0">Building AI Projects...<animate attributeName="opacity" values="0;0;1;1;0;0" keyTimes="0;0.4;0.419;0.55;0.569;1" dur="16s" repeatCount="indefinite"/></text><text fill="#9aa7bd" letter-spacing=".2" opacity="0">Training ML Models...<animate attributeName="opacity" values="0;0;1;1;0;0" keyTimes="0;0.6;0.619;0.75;0.769;1" dur="16s" repeatCount="indefinite"/></text><text fill="#9aa7bd" letter-spacing=".2" opacity="0">Staying curious...<animate attributeName="opacity" values="0;0;1;1;0" keyTimes="0;0.8;0.819;0.95;1" dur="16s" repeatCount="indefinite"/></text><rect y="-9" width="5" height="12" rx="1" fill="#58a6ff"><animate attributeName="x" values="108;108;97;97;124;124;113;113;97;97" keyTimes="0;0.2;0.2;0.4;0.4;0.6;0.6;0.8;0.8;1" dur="16s" repeatCount="indefinite" calcMode="discrete"/><animate attributeName="opacity" values="1;1;0;0" keyTimes="0;0.5;0.5;1" dur="1s" repeatCount="indefinite"/></rect></g></g></g><g transform="translate(464,0)"><rect x="0" y="0" width="436" height="200" fill="#0d1219" opacity=".6"/><rect x="194" y="2" width="96" height="82" rx="5" fill="#080e18" opacity=".5"/><rect x="197" y="4" width="90" height="78" rx="5" fill="#1a2335" stroke="#22304a" stroke-width="1.5"/><g clip-path="url(#wG)"><rect x="200" y="7" width="84" height="72" fill="#04080f"/><rect x="200" y="7" width="84" height="72" fill="url(#gA)" opacity=".3"/><circle cx="264" cy="22" r="7.5" fill="#d0dff5" opacity=".25"/><circle cx="267.5" cy="21" r="6.5" fill="#04080f"/><circle cx="264" cy="22" r="9" fill="#8ba8c8" opacity=".07"/><rect x="200" y="63" width="84" height="16" fill="#0a1628" opacity=".8"/><ellipse cx="242" cy="70" rx="28" ry="6" fill="#1a3050" opacity=".35"/><path d="M200 79 Q216 58 234 68 Q250 52 270 64 Q282 54 284 79Z" fill="#070d1a"/><circle cx="214" cy="72" r=".7" fill="#ffd580" opacity=".5"/><circle cx="221" cy="70" r=".6" fill="#a5d6ff" opacity=".4"/><circle cx="228" cy="73" r=".7" fill="#ffd580" opacity=".45"/><circle cx="248" cy="68" r=".6" fill="#ffd580" opacity=".5"/><circle cx="256" cy="71" r=".7" fill="#a5d6ff" opacity=".4"/><circle cx="263" cy="69" r=".6" fill="#ffd580" opacity=".45"/><circle cx="272" cy="72" r=".7" fill="#a5d6ff" opacity=".5"/><circle cx="278" cy="70" r=".6" fill="#ffd580" opacity=".4"/><circle class="twA" cx="208" cy="14" r=".9" fill="#e8f4ff"/><circle class="twB" cx="218" cy="24" r=".7" fill="#fff"/><circle class="twC" cx="228" cy="11" r="1" fill="#c4b5fd"/><circle class="twD" cx="238" cy="30" r=".7" fill="#fff"/><circle class="twA" cx="248" cy="16" r=".8" fill="#e8f4ff"/><circle class="twB" cx="258" cy="28" r=".7" fill="#c4b5fd"/><circle class="twC" cx="268" cy="12" r=".9" fill="#fff"/><circle class="twD" cx="275" cy="36" r=".7" fill="#e8f4ff"/><circle class="twA" cx="210" cy="42" r=".8" fill="#fff"/><circle class="twB" cx="245" cy="44" r=".7" fill="#c4b5fd"/><circle class="twC" cx="260" cy="38" r=".8" fill="#fff"/><path d="M200 7 L208 7 L200 24Z" fill="#fff" opacity=".025"/></g><rect x="197" y="44" width="90" height="3.5" fill="#1a2335"/><rect x="239" y="4" width="3.5" height="78" fill="#1a2335"/><rect x="194" y="82" width="96" height="4" rx="1.5" fill="#22304a"/><g transform="translate(14,16)"><rect x="2" y="39" width="158" height="8" rx="2" fill="#000" opacity=".2"/><rect x="0" y="34" width="158" height="6" rx="2" fill="#303d52"/><rect x="0" y="40" width="158" height="4" rx="1" fill="#1e2a3a"/><rect x="4" y="40" width="3" height="12" rx="1" fill="#1a2535"/><rect x="4" y="49" width="10" height="3" rx="1" fill="#1a2535"/><rect x="148" y="40" width="3" height="12" rx="1" fill="#1a2535"/><rect x="141" y="49" width="10" height="3" rx="1" fill="#1a2535"/><g transform="translate(10,3)"><rect width="12" height="31" rx="1.5" fill="#1a5fa8"/><rect x="1" width="2.5" height="31" rx=".5" fill="#2472c8" opacity=".7"/><rect x="2.5" width="9.5" height="1.5" rx=".3" fill="#d0d8e8" opacity=".25"/><rect x="2.5" y="29.5" width="9.5" height="1.5" rx=".3" fill="#d0d8e8" opacity=".15"/><text font-size="4.8" fill="#bdd6f5" text-anchor="middle" transform="translate(7,24) rotate(-90)" letter-spacing=".4">Python</text></g><g transform="translate(24,6)"><rect width="11" height="28" rx="1.5" fill="#4c1d95"/><rect x="1" width="2" height="28" rx=".5" fill="#6d28d9" opacity=".7"/><rect x="2" width="9" height="1.5" rx=".3" fill="#d0c8f0" opacity=".2"/><rect x="2" y="26.5" width="9" height="1.5" rx=".3" fill="#d0c8f0" opacity=".15"/><text font-size="5.5" fill="#ddd6fe" text-anchor="middle" transform="translate(6.5,21) rotate(-90)" letter-spacing=".4">AI</text></g><g transform="translate(37,7)"><rect width="11" height="27" rx="1.5" fill="#14532d"/><rect x="1" width="2" height="27" rx=".5" fill="#16a34a" opacity=".6"/><rect x="2" width="9" height="1.5" rx=".3" fill="#c8e8d0" opacity=".2"/><rect x="2" y="25.5" width="9" height="1.5" rx=".3" fill="#c8e8d0" opacity=".15"/><text font-size="5.5" fill="#86efac" text-anchor="middle" transform="translate(6.5,21) rotate(-90)" letter-spacing=".4">ML</text></g><g transform="translate(50,4)"><rect width="12" height="30" rx="1.5" fill="#7c2d12"/><rect x="1" width="2" height="30" rx=".5" fill="#ea580c" opacity=".6"/><rect x="2" width="10" height="1.5" rx=".3" fill="#fde8d0" opacity=".2"/><rect x="2" y="28.5" width="10" height="1.5" rx=".3" fill="#fde8d0" opacity=".15"/><text font-size="4.8" fill="#fed7aa" text-anchor="middle" transform="translate(7,24) rotate(-90)" letter-spacing=".4">Git</text></g><rect transform="translate(63,18) rotate(10)" width="6" height="16" rx="1" fill="#253040" opacity=".7"/><g transform="translate(128,14)"><circle r="14" fill="#141e2e" stroke="#2a3a52" stroke-width="1.5"/><circle r="12" fill="#0f1624"/><circle r="11" fill="#1a2535" opacity=".4"/><g fill="#3d5070"><rect x="-1" y="-11" width="2" height="3.5" rx="1" fill="#58769a"/><rect x="8.5" y="-1" width="3.5" height="2" rx="1" fill="#58769a"/><rect x="-1" y="7.5" width="2" height="3.5" rx="1" fill="#58769a"/><rect x="-12" y="-1" width="3.5" height="2" rx="1" fill="#58769a"/><circle cx="5.5" cy="-9.5" r=".9"/><circle cx="9.5" cy="-5.5" r=".9"/><circle cx="9.5" cy="5.5" r=".9"/><circle cx="5.5" cy="9.5" r=".9"/><circle cx="-5.5" cy="9.5" r=".9"/><circle cx="-9.5" cy="5.5" r=".9"/><circle cx="-9.5" cy="-5.5" r=".9"/><circle cx="-5.5" cy="-9.5" r=".9"/></g><line x1="0" y1="0" x2="-5.5" y2="-7" stroke="#8ba4c8" stroke-width="2" stroke-linecap="round"/><line x1="0" y1="0" x2="3.5" y2="-9" stroke="#a8c0e0" stroke-width="1.5" stroke-linecap="round"/><line x1="0" y1="1.5" x2="1.5" y2="-10" stroke="#ef4444" stroke-width=".9" stroke-linecap="round" opacity=".8"/><circle r="1.5" fill="#c9d1d9"/></g></g><g transform="translate(30,88)"><path d="M46 100 L22 186 L70 186Z" fill="url(#lG)" opacity=".12"/><ellipse class="lG" cx="46" cy="8" rx="34" ry="20" fill="url(#lG)"/><rect x="2" y="97" width="28" height="6" rx="3" fill="#2d3748"/><rect x="5" y="95" width="22" height="4" rx="2" fill="#38475e"/><line x1="16" y1="101" x2="16" y2="48" stroke="#3d4f66" stroke-width="4.5" stroke-linecap="round"/><line x1="16" y1="48" x2="52" y2="16" stroke="#3d4f66" stroke-width="4.5" stroke-linecap="round"/><circle cx="16" cy="48" r="3" fill="#4a5e78"/><path d="M34 26 L66 6 L62 -6 L30 16Z" fill="#c49a1e"/><path d="M34 26 L66 6 L64 2 L32 22Z" fill="#a07e18" opacity=".5"/><line x1="34" y1="26" x2="66" y2="6" stroke="#9a7612" stroke-width=".8"/><line x1="30" y1="16" x2="62" y2="-6" stroke="#e8b820" stroke-width=".6" opacity=".4"/><circle cx="46" cy="10" r="3.5" fill="#fff8e0" opacity=".85"/><circle cx="46" cy="10" r="1.8" fill="#fff" opacity=".6"/></g><g transform="translate(10,148)"><rect width="28" height="28" rx="2" fill="#f0d050" transform="rotate(-6)"/><line x1="-2" y1="7" x2="24" y2="2" stroke="#c9a830" stroke-width="1.3" transform="rotate(-6)"/><line x1="-1" y1="14" x2="21" y2="9" stroke="#c9a830" stroke-width="1" transform="rotate(-6)"/><rect x="22" y="4" width="28" height="26" rx="2" fill="#93c5fd" transform="rotate(5 36 17)"/><line x1="26" y1="12" x2="48" y2="9" stroke="#60a5fa" stroke-width="1.2" transform="rotate(5 36 17)"/></g><rect x="0" y="188" width="436" height="12" rx="2" fill="url(#dE)"/><rect x="0" y="196" width="436" height="10" rx="1" fill="url(#dG)"/><rect x="0" y="188" width="436" height="2" rx="1" fill="#c4905a" opacity=".35"/><rect x="0" y="206" width="436" height="6" fill="#5a3e28" opacity=".4"/><rect x="16" y="206" width="12" height="54" rx="3" fill="#5a3e28"/><rect x="408" y="206" width="12" height="54" rx="3" fill="#5a3e28"/><g transform="translate(46,152)"><ellipse cx="12" cy="36" rx="13" ry="3" fill="#000" opacity=".18"/><path class="stA" opacity=".7" d="M6 0 Q2 -7 6 -14 Q10 -20 6 -27" stroke="#c9d1d9" stroke-width="1.8" fill="none" stroke-linecap="round"/><path class="stB" opacity=".5" d="M14 -1 Q10 -8 14 -14 Q17 -19 14 -25" stroke="#c9d1d9" stroke-width="1.5" fill="none" stroke-linecap="round"/><path d="M2 6 L0 32 Q0 36 6 36 L18 36 Q24 36 24 32 L22 6Z" fill="#c0392b"/><ellipse cx="12" cy="6" rx="11" ry="3" fill="#e74c3c"/><ellipse cx="12" cy="6" rx="8" ry="2" fill="#4a2010" opacity=".9"/><path d="M4 10 L3 28" stroke="#e05545" stroke-width="1.5" fill="none" stroke-linecap="round" opacity=".5"/><path d="M22 14 Q30 14 30 20 Q30 27 22 26" fill="none" stroke="#a93226" stroke-width="2.5" stroke-linecap="round"/><ellipse cx="12" cy="36" rx="11" ry="2.5" fill="#922b21"/></g><g transform="translate(112,178)"><rect x="1" y="2" width="134" height="24" rx="6" fill="#000" opacity=".22"/><rect width="134" height="24" rx="6" fill="#1c2535" stroke="#283347" stroke-width="1.2"/><rect width="134" height="1.5" rx="1" fill="#3a4f6a" opacity=".55"/><g fill="#253044" stroke="#354460" stroke-width=".6"><rect id="kk" x="5" y="4" width="9" height="6" rx="1.5"/><use href="#kk" x="11"/><use href="#kk" x="22"/><use href="#kk" x="33"/><use href="#kk" x="44"/><use href="#kk" x="55"/><use href="#kk" x="66"/><use href="#kk" x="77"/><use href="#kk" x="88"/><rect x="104" y="4" width="10" height="6" rx="1.5"/><rect x="116" y="4" width="13" height="6" rx="1.5"/><use href="#kk" y="8"/><use href="#kk" x="11" y="8"/><use href="#kk" x="22" y="8"/><use href="#kk" x="33" y="8"/><use href="#kk" x="44" y="8"/><use href="#kk" x="55" y="8"/><use href="#kk" x="66" y="8"/><use href="#kk" x="77" y="8"/><rect x="93" y="12" width="36" height="6" rx="1.5"/></g><rect x="0" y="21" width="134" height="3" rx="1.5" fill="#7c3aed" opacity=".2"/></g><g transform="translate(258,181)"><ellipse cx="11" cy="30" rx="9" ry="2.5" fill="#000" opacity=".18"/><path d="M2 8 Q2 0 11 0 Q20 0 20 8 L20 22 Q20 30 11 30 Q2 30 2 22Z" fill="#1c2535" stroke="#283347" stroke-width="1.2"/><line x1="11" y1="1" x2="11" y2="14" stroke="#354460" stroke-width="1.2"/><rect x="8" y="6" width="6" height="8" rx="3" fill="#2e3f58"/><rect x="2" y="14" width="3" height="5" rx="1" fill="#253044" opacity=".7"/></g><g transform="translate(294,175) rotate(-3 20 14)"><rect x="1" y="2" width="42" height="27" rx="3" fill="#000" opacity=".18"/><rect width="42" height="27" rx="3" fill="#1e2d3d" stroke="#283347" stroke-width="1"/><rect width="6" height="27" rx="2" fill="#162030"/><circle cx="3" cy="5" r="1.8" fill="#2a3a50"/><circle cx="3" cy="11" r="1.8" fill="#2a3a50"/><circle cx="3" cy="17" r="1.8" fill="#2a3a50"/><circle cx="3" cy="23" r="1.8" fill="#2a3a50"/><rect x="7" y="2" width="33" height="23" rx="1.5" fill="#f5f0e8" opacity=".06"/><g stroke="#2a3a50" stroke-width=".8"><line x1="9" y1="8" x2="39" y2="8"/><line x1="9" y1="14" x2="39" y2="14"/><line x1="9" y1="20" x2="33" y2="20"/></g><line x1="9" y1="8" x2="22" y2="8" stroke="#58a6ff" stroke-width=".9" opacity=".5"/><line x1="9" y1="14" x2="18" y2="14" stroke="#58a6ff" stroke-width=".9" opacity=".35"/></g><g transform="translate(307,170) rotate(88 3 15)"><rect width="5" height="28" rx="2.5" fill="#374151"/><rect y="18" width="5" height="7" rx="1" fill="#2d3544"/><rect x="4" y="2" width="1.5" height="18" rx=".75" fill="#4b5563"/><path d="M1 27 L2.5 33 L4 27Z" fill="#9ca3af"/><rect x=".5" width="4" height="3" rx="2" fill="#6b7280"/></g><g transform="translate(358,169)"><rect x="1" y="2" width="22" height="33" rx="5" fill="#000" opacity=".2"/><rect width="22" height="33" rx="5" fill="#161e2c" stroke="#24304a" stroke-width="1.2"/><rect x="14" y="2" width="6" height="6" rx="2" fill="#111722"/><circle cx="17" cy="5" r="1.8" fill="#0d1320"/><circle cx="17" cy="5" r="1" fill="#1a2535" opacity=".6"/><rect x="2" y="6" width="18" height="24" rx="2.5" fill="#0d1420"/><rect x="2" y="6" width="18" height="4" rx="2" fill="#111e30"/><rect x="4" y="14" width="14" height="8" rx="2" fill="#1a2535"/><rect x="4" y="14" width="3" height="8" rx="1" fill="#58a6ff" opacity=".6"/><line x1="9" y1="17" x2="17" y2="17" stroke="#8b949e" stroke-width="1" stroke-linecap="round"/><line x1="9" y1="20" x2="15" y2="20" stroke="#6e7681" stroke-width="1" stroke-linecap="round"/><rect x="7" y="31" width="8" height="1.5" rx=".75" fill="#2a3a50"/></g><g transform="translate(392,163)"><ellipse cx="10" cy="26" rx="11" ry="3" fill="#000" opacity=".15"/><path d="M2 26 L4 14 L16 14 L18 26Z" fill="#b85c38"/><rect x="1" y="11" width="18" height="4" rx="2" fill="#d4724a"/><ellipse cx="10" cy="13" rx="8" ry="2" fill="#3a2a1a"/><g class="pS"><ellipse cx="10" cy="10" rx="4" ry="2.5" fill="#16a34a" transform="rotate(0 10 10)"/><ellipse cx="10" cy="10" rx="4" ry="2.5" fill="#22c55e" transform="rotate(45 10 10)"/><ellipse cx="10" cy="10" rx="4" ry="2.5" fill="#16a34a" transform="rotate(90 10 10)"/><ellipse cx="10" cy="10" rx="4" ry="2.5" fill="#22c55e" transform="rotate(135 10 10)"/><circle cx="10" cy="10" r="2.2" fill="#4ade80"/><ellipse cx="10" cy="3" rx="3" ry="1.8" fill="#15803d" transform="rotate(20 10 10)"/><ellipse cx="10" cy="3" rx="3" ry="1.8" fill="#15803d" transform="rotate(-20 10 10)"/><ellipse cx="10" cy="3" rx="3" ry="1.8" fill="#22c55e" transform="rotate(60 10 10)"/><ellipse cx="10" cy="3" rx="3" ry="1.8" fill="#22c55e" transform="rotate(-60 10 10)"/></g></g><g transform="translate(172,126)"><ellipse class="sG" cx="0" cy="-10" rx="62" ry="50" fill="url(#lS)" opacity=".9"/><rect x="-55" y="-52" width="110" height="102" rx="7" fill="#1c2333"/><rect x="-51" y="-48" width="102" height="94" rx="5" fill="#0d1117"/><g clip-path="url(#vC)"><rect x="-48" y="-45" width="96" height="88" fill="#1e1e2e"/><rect x="-48" y="-45" width="8" height="88" fill="#181825"/><rect x="-46" y="-41" width="4" height="4" rx=".5" fill="#58a6ff" opacity=".7"/><rect x="-46" y="-34" width="4" height="4" rx=".5" fill="#6e7681" opacity=".5"/><rect x="-46" y="-27" width="4" height="4" rx=".5" fill="#6e7681" opacity=".5"/><rect x="-46" y="-20" width="4" height="4" rx=".5" fill="#6e7681" opacity=".5"/><rect x="-40" y="-45" width="88" height="10" fill="#181825"/><rect x="-40" y="-45" width="36" height="10" fill="#1e1e2e"/><rect x="-40" y="-45" width="36" height="1.5" fill="#58a6ff"/><text x="-33" y="-38" font-size="4.2" fill="#cdd9e5" letter-spacing=".1">model.py</text><rect x="-3" y="-45" width="28" height="10" fill="#181825"/><text x="3" y="-38" font-size="4.2" fill="#6e7681" letter-spacing=".1">train.py</text><rect x="-40" y="-35" width="9" height="78" fill="#1a1a2e"/><rect x="-31" y="16" width="79" height="7" fill="#2a2a3e" opacity=".8"/><text x="-38" y="-28" font-size="4" fill="#3d4f6e">1</text><text x="-29" y="-28" font-size="4.5"><tspan fill="#c792ea">import</tspan><tspan dx="2" fill="#89ddff"> torch</tspan></text><text x="-38" y="-21" font-size="4" fill="#3d4f6e">2</text><text x="-29" y="-21" font-size="4.5"><tspan fill="#c792ea">import</tspan><tspan dx="2" fill="#89ddff"> torch.nn</tspan><tspan fill="#cdd9e5"> as</tspan><tspan dx="2" fill="#89ddff"> nn</tspan></text><text x="-38" y="-14" font-size="4" fill="#3d4f6e">3</text><text x="-38" y="-7" font-size="4" fill="#3d4f6e">4</text><text x="-29" y="-7" font-size="4.5"><tspan fill="#c792ea">class</tspan><tspan dx="3" fill="#82aaff">MLModel</tspan><tspan fill="#89ddff">(</tspan><tspan fill="#ffcb6b">nn.Module</tspan><tspan fill="#89ddff">):</tspan></text><text x="-38" y="0" font-size="4" fill="#3d4f6e">5</text><text x="-29" y="0" font-size="4.5"><tspan fill="#6e7681">  </tspan><tspan fill="#c792ea">def</tspan><tspan dx="3" fill="#82aaff">__init__</tspan><tspan fill="#89ddff">(</tspan><tspan fill="#f78c6c">self</tspan><tspan fill="#89ddff">):</tspan></text><text x="-38" y="7" font-size="4" fill="#3d4f6e">6</text><text x="-29" y="7" font-size="4.5"><tspan fill="#6e7681">    </tspan><tspan fill="#f78c6c">super</tspan><tspan fill="#89ddff">().</tspan><tspan fill="#82aaff">__init__</tspan><tspan fill="#89ddff">()</tspan></text><text x="-38" y="14" font-size="4" fill="#3d4f6e">7</text><text x="-29" y="14" font-size="4.5"><tspan fill="#6e7681">    </tspan><tspan fill="#f78c6c">self</tspan><tspan fill="#89ddff">.fc</tspan><tspan fill="#cdd9e5"> = </tspan><tspan fill="#ffcb6b">nn.Linear</tspan><tspan fill="#89ddff">(</tspan><tspan fill="#f78c6c">128</tspan><tspan fill="#89ddff">,</tspan><tspan fill="#f78c6c"> 10</tspan><tspan fill="#89ddff">)</tspan></text><text x="-38" y="21" font-size="4" fill="#3d4f6e">8</text><text x="-29" y="21" font-size="4.5"><tspan fill="#6e7681">  </tspan><tspan fill="#c792ea">def</tspan><tspan dx="3" fill="#82aaff">forward</tspan><tspan fill="#89ddff">(</tspan><tspan fill="#f78c6c">self</tspan><tspan fill="#89ddff">,</tspan><tspan dx="2" fill="#f78c6c">x</tspan><tspan fill="#89ddff">):</tspan></text><text x="-38" y="28" font-size="4" fill="#3d4f6e">9</text><text x="-29" y="28" font-size="4.5"><tspan fill="#6e7681">    </tspan><tspan fill="#c792ea">return</tspan><tspan dx="2" fill="#f78c6c">self</tspan><tspan fill="#89ddff">.fc(</tspan><tspan fill="#f78c6c">x</tspan><tspan fill="#89ddff">)</tspan></text><text x="-38" y="35" font-size="4" fill="#3d4f6e">10</text><text x="-29" y="35" font-size="4.5" fill="#cdd9e5"><tspan class="cursor" fill="#58a6ff" font-size="5">▌</tspan></text><rect x="-40" y="40" width="88" height="7" fill="#0078d4"/><text x="-38" y="45.5" font-size="3.8" fill="#ffffffcc" letter-spacing=".2">● Python 3.12</text><text x="14" y="45.5" font-size="3.8" fill="#ffffffcc" letter-spacing=".2">Ln 10  Col 1</text></g><rect x="-55" y="50" width="110" height="8" rx="2" fill="#1c2333"/><path d="M-62 58 L62 58 L54 72 L-54 72Z" fill="#21293a"/><rect x="-62" y="56" width="124" height="5" rx="3" fill="#2a3548"/><rect x="-18" y="61" width="36" height="9" rx="2" fill="#1e2840" stroke="#253050" stroke-width=".7"/></g><g transform="translate(170,152)"><rect x="-52" y="-44" width="104" height="94" rx="14" fill="url(#cG)"/><rect x="-47" y="-39" width="52" height="82" rx="10" fill="#2a3446" opacity=".5"/><path d="M-50 40 Q-52 -16 0 -22 Q52 -16 50 40 L50 52 L-50 52Z" fill="url(#hD)"/><rect x="-50" y="46" width="100" height="8" rx="3" fill="#2e60b8"/><path d="M-22 24 Q0 34 22 24 L20 40 Q0 48 -20 40Z" fill="#2f6fd6" opacity=".5"/><line x1="-22" y1="24" x2="-20" y2="40" stroke="#2558b0" stroke-width=".9" opacity=".6"/><line x1="22" y1="24" x2="20" y2="40" stroke="#2558b0" stroke-width=".9" opacity=".6"/><path d="M-18 -18 Q0 -28 18 -18 Q12 -10 0 -12 Q-12 -10 -18 -18Z" fill="#3470cc" opacity=".45"/><line x1="-7" y1="-20" x2="-11" y2="2" stroke="#2a5cc0" stroke-width="1.4" stroke-linecap="round"/><line x1="7" y1="-20" x2="11" y2="2" stroke="#2a5cc0" stroke-width="1.4" stroke-linecap="round"/><circle cx="-11" cy="2" r="1.5" fill="#1e4aa0"/><circle cx="11" cy="2" r="1.5" fill="#1e4aa0"/><path d="M30 -8 Q56 2 54 28 Q52 36 44 36 L40 22 Q38 8 28 -1Z" fill="#4080e0"/><path d="M44 36 Q50 32 54 28 Q52 34 46 40 Q42 42 40 40Z" fill="#2f6fd6" opacity=".7"/><circle cx="46" cy="30" r="7.5" fill="url(#sG)"/><rect x="-8" y="-46" width="16" height="13" rx="4" fill="url(#sG)"/><ellipse cx="0" cy="-64" rx="26" ry="28" fill="url(#sG)"/><ellipse cx="-25" cy="-62" rx="4.5" ry="5.5" fill="#d8a070"/><ellipse cx="25" cy="-62" rx="4.5" ry="5.5" fill="#d8a070"/><ellipse cx="-25" cy="-62" rx="2.5" ry="3" fill="#c8906a" opacity=".6"/><ellipse cx="25" cy="-62" rx="2.5" ry="3" fill="#c8906a" opacity=".6"/><path d="M-26 -66 Q-28 -96 0 -100 Q28 -96 26 -66" fill="none" stroke="#0a0a0a" stroke-width="9" stroke-linecap="round"/><path d="M-26 -66 Q-28 -96 0 -100 Q28 -96 26 -66" fill="none" stroke="#222" stroke-width="5" stroke-linecap="round"/><path d="M-10 -98 Q0 -102 10 -98" fill="none" stroke="#333" stroke-width="2" stroke-linecap="round" opacity=".8"/><g id="earL"><ellipse cx="-28" cy="-60" rx="11" ry="14" fill="#0d0d0d" stroke="#000" stroke-width="1.5"/><ellipse cx="-28" cy="-60" rx="8" ry="11" fill="#161616"/><ellipse cx="-28" cy="-60" rx="6" ry="8.5" fill="#1a1a1a"/><ellipse cx="-28" cy="-60" rx="4" ry="6" fill="#111" opacity=".8"/></g><use href="#earL" transform="scale(-1,1)"/><circle cx="35" cy="-70" r="1.8" fill="#58a6ff" opacity=".9"/><path d="M-29 -50 Q-26 -44 -24 -42" stroke="#0d0d0d" stroke-width="1.5" fill="none" stroke-linecap="round" opacity=".6"/><path d="M-26 -70 Q-30 -98 0 -102 Q30 -98 26 -70 Q24 -52 20 -46 L18 -62 Q16 -88 0 -90 Q-16 -88 -18 -62 L-20 -46 Q-24 -52 -26 -70Z" fill="url(#hG)"/><path d="M-24 -68 Q-30 -54 -24 -44 Q-22 -42 -20 -44" stroke="url(#hG)" stroke-width="6" fill="none" stroke-linecap="round"/><path d="M24 -68 Q30 -54 24 -44 Q22 -42 20 -44" stroke="url(#hG)" stroke-width="6" fill="none" stroke-linecap="round"/><ellipse cx="1" cy="-106" rx="14" ry="12" fill="url(#hG)"/><ellipse cx="-3" cy="-108" rx="8" ry="6" fill="#3a2418" opacity=".5"/><path d="M-14 -103 Q-8 -115 2 -116 Q10 -115 14 -103" stroke="#3a2418" stroke-width="3" fill="none" stroke-linecap="round" opacity=".55"/><path d="M-12 -104 Q-18 -115 -8 -120" stroke="#4a3020" stroke-width="1.8" fill="none" stroke-linecap="round" opacity=".75"/><path d="M14 -104 Q20 -114 11 -119" stroke="#4a3020" stroke-width="1.8" fill="none" stroke-linecap="round" opacity=".75"/><path d="M2 -116 Q7 -122 2 -126" stroke="#3a2418" stroke-width="1.5" fill="none" stroke-linecap="round" opacity=".6"/><path d="M-5 -114 Q-10 -118 -6 -122" stroke="#3a2418" stroke-width="1.3" fill="none" stroke-linecap="round" opacity=".5"/><ellipse cx="1" cy="-106" rx="14" ry="3.5" fill="#1e1008" opacity=".55" transform="rotate(-8 1 -106)"/><path d="M-11 -108 Q1 -112 13 -108 Q1 -103 -11 -108Z" fill="#7c3aed" opacity=".8"/><path d="M-22 -72 Q-26 -60 -22 -50" stroke="#4a3020" stroke-width="2.2" fill="none" stroke-linecap="round" opacity=".65"/><path d="M22 -72 Q26 -60 22 -50" stroke="#4a3020" stroke-width="2.2" fill="none" stroke-linecap="round" opacity=".65"/><path d="M-8 -90 Q-14 -96 -10 -100" stroke="#4a3020" stroke-width="1.2" fill="none" stroke-linecap="round" opacity=".45"/><path d="M-15 -75 Q-10 -79 -5 -76" stroke="#3a2818" stroke-width="2.3" fill="none" stroke-linecap="round"/><path d="M15 -75 Q10 -79 5 -76" stroke="#3a2818" stroke-width="2.3" fill="none" stroke-linecap="round"/><circle cx="-10" cy="-63" r="9.5" fill="#58a6ff" opacity=".07"/><circle cx="10" cy="-63" r="9.5" fill="#58a6ff" opacity=".07"/><circle cx="-10" cy="-63" r="9.5" fill="none" stroke="#0f0f1a" stroke-width="2.5"/><circle cx="10" cy="-63" r="9.5" fill="none" stroke="#0f0f1a" stroke-width="2.5"/><path d="M-.5 -63 Q0 -64 .5 -63" stroke="#0f0f1a" stroke-width="2.5" fill="none" stroke-linecap="round"/><line x1="-19.5" y1="-63" x2="-25" y2="-61" stroke="#0f0f1a" stroke-width="2" stroke-linecap="round"/><line x1="19.5" y1="-63" x2="25" y2="-61" stroke="#0f0f1a" stroke-width="2" stroke-linecap="round"/><path d="M-18 -71 Q-15 -70 -13 -68" stroke="#fff" stroke-width="1.1" fill="none" opacity=".28"/><path d="M2 -71 Q5 -70 7 -68" stroke="#fff" stroke-width="1.1" fill="none" opacity=".28"/><g class="eyes"><ellipse cx="-10" cy="-63" rx="3" ry="3.5" fill="#241c14"/><circle cx="-8.5" cy="-64.5" r=".9" fill="#fff" opacity=".75"/><ellipse cx="10" cy="-63" rx="3" ry="3.5" fill="#241c14"/><circle cx="11.5" cy="-64.5" r=".9" fill="#fff" opacity=".75"/></g><path d="M-7 -50 Q-3 -46 0 -45.5 Q3 -46 7 -50" stroke="#b07050" stroke-width="2.1" fill="none" stroke-linecap="round"/><circle cx="-8" cy="-51" r=".9" fill="#c08060" opacity=".35"/><circle cx="8" cy="-51" r=".9" fill="#c08060" opacity=".35"/><ellipse cx="-19" cy="-56" rx="5.5" ry="3" fill="#f0a090" opacity=".32"/><ellipse cx="19" cy="-56" rx="5.5" ry="3" fill="#f0a090" opacity=".32"/><path d="M-2 -57 Q0 -55 2 -57" stroke="#c8906a" stroke-width="1.2" fill="none" stroke-linecap="round" opacity=".6"/><path d="M-30 -8 Q-56 4 -54 28 Q-52 36 -44 36 L-40 22 Q-38 8 -28 0Z" fill="#4080e0"/><path d="M-44 36 Q-50 32 -54 28 Q-52 34 -46 40 Q-42 42 -40 40Z" fill="#2f6fd6" opacity=".7"/><circle cx="-46" cy="30" r="7.5" fill="url(#sG)"/><rect x="-46" y="62" width="9" height="64" rx="3" fill="#1a2030"/><rect x="37" y="62" width="9" height="64" rx="3" fill="#1a2030"/></g></g><rect x="396" y="30" width="1" height="210" fill="#2d3a4e" opacity=".4"/><rect width="900" height="260" fill="url(#bgR)" opacity=".08"/></svg>